P3
4 4
255
0 255 255 75  0  0       0  0  0    255   255 255
0  0  0    0 255 100     0  0  0     0    0  0
0  0  0    0  0  0       0 35 120    0    0  0
255 0 255  0  0  0       0  0  0    255  255 0